<svg width="13" height="13" viewBox="0 0 13 13" fill="none" xmlns="http://www.w3.org/2000/svg">
<path fill-rule="evenodd" clip-rule="evenodd" d="M6.05991 1.72773C3.44579 1.91073 1.38194 4.08935 1.38194 6.75C1.38194 9.5306 3.63606 11.7847 6.41666 11.7847C8.64435 11.7847 10.5345 10.3376 11.1978 8.33241C10.6873 8.54331 10.1279 8.65973 9.54166 8.65973C7.14459 8.65973 5.20138 6.71652 5.20138 4.31945C5.20138 3.34782 5.52091 2.45076 6.05991 1.72773ZM0.340271 6.75C0.340271 3.39411 3.06076 0.673615 6.41666 0.673615C6.72889 0.673615 7.03595 0.697209 7.33607 0.742794C7.54368 0.774329 7.71205 0.927458 7.76308 1.13116C7.81411 1.33486 7.73782 1.54928 7.56959 1.67496C6.76335 2.27733 6.24305 3.23756 6.24305 4.31945C6.24305 6.14122 7.71989 7.61806 9.54166 7.61806C10.3293 7.61806 11.0512 7.34264 11.6184 6.88239C11.7814 6.75014 12.0078 6.72864 12.1928 6.82785C12.3778 6.92706 12.4851 7.1276 12.4651 7.33653C12.1697 10.4175 9.57479 12.8264 6.41666 12.8264C3.06076 12.8264 0.340271 10.1059 0.340271 6.75Z" fill="#24272C"/>
</svg>
