<svg width="16" height="16" viewBox="0 0 16 16" fill="none" xmlns="http://www.w3.org/2000/svg">
<path d="M7.83332 0.534729C8.12097 0.534729 8.35415 0.767914 8.35415 1.05556V1.75001C8.35415 2.03766 8.12097 2.27084 7.83332 2.27084C7.54567 2.27084 7.31249 2.03766 7.31249 1.75001V1.05556C7.31249 0.767914 7.54567 0.534729 7.83332 0.534729Z" fill="#E9EAF0"/>
<path fill-rule="evenodd" clip-rule="evenodd" d="M3.84026 8.00001C3.84026 5.7947 5.62802 4.00695 7.83332 4.00695C10.0386 4.00695 11.8264 5.7947 11.8264 8.00001C11.8264 10.2053 10.0386 11.9931 7.83332 11.9931C5.62802 11.9931 3.84026 10.2053 3.84026 8.00001ZM7.83332 5.04862C6.20331 5.04862 4.88193 6.37 4.88193 8.00001C4.88193 9.63001 6.20331 10.9514 7.83332 10.9514C9.46333 10.9514 10.7847 9.63001 10.7847 8.00001C10.7847 6.37 9.46333 5.04862 7.83332 5.04862Z" fill="#E9EAF0"/>
<path d="M3.29115 2.72127C3.08775 2.51788 2.75798 2.51788 2.55458 2.72127C2.35118 2.92467 2.35118 3.25445 2.55458 3.45784L3.04563 3.94889C3.24903 4.15229 3.5788 4.15229 3.7822 3.94889C3.98559 3.74549 3.98559 3.41572 3.7822 3.21232L3.29115 2.72127Z" fill="#E9EAF0"/>
<path d="M15.2986 8.00001C15.2986 8.28765 15.0654 8.52084 14.7778 8.52084H14.0833C13.7957 8.52084 13.5625 8.28765 13.5625 8.00001C13.5625 7.71236 13.7957 7.47917 14.0833 7.47917H14.7778C15.0654 7.47917 15.2986 7.71236 15.2986 8.00001Z" fill="#E9EAF0"/>
<path d="M13.1121 3.45784C13.3154 3.25444 13.3154 2.92467 13.1121 2.72127C12.9087 2.51787 12.5789 2.51787 12.3755 2.72127L11.8844 3.21231C11.681 3.41571 11.681 3.74549 11.8844 3.94888C12.0878 4.15228 12.4176 4.15228 12.621 3.94888L13.1121 3.45784Z" fill="#E9EAF0"/>
<path d="M7.83332 13.7292C8.12097 13.7292 8.35415 13.9624 8.35415 14.25V14.9445C8.35415 15.2321 8.12097 15.4653 7.83332 15.4653C7.54567 15.4653 7.31249 15.2321 7.31249 14.9445V14.25C7.31249 13.9624 7.54567 13.7292 7.83332 13.7292Z" fill="#E9EAF0"/>
<path d="M12.6211 12.0511C12.4177 11.8477 12.0879 11.8477 11.8845 12.0511C11.6811 12.2545 11.6811 12.5843 11.8845 12.7877L12.3755 13.2787C12.5789 13.4821 12.9087 13.4821 13.1121 13.2787C13.3155 13.0754 13.3155 12.7456 13.1121 12.5422L12.6211 12.0511Z" fill="#E9EAF0"/>
<path d="M2.10415 8.00001C2.10415 8.28765 1.87097 8.52084 1.58332 8.52084H0.888875C0.601227 8.52084 0.368042 8.28765 0.368042 8.00001C0.368042 7.71236 0.601227 7.47917 0.888875 7.47917H1.58332C1.87097 7.47917 2.10415 7.71236 2.10415 8.00001Z" fill="#E9EAF0"/>
<path d="M3.78215 12.7877C3.98555 12.5843 3.98555 12.2545 3.78215 12.0511C3.57875 11.8477 3.24898 11.8477 3.04558 12.0511L2.55453 12.5422C2.35114 12.7456 2.35114 13.0753 2.55453 13.2787C2.75793 13.4821 3.08771 13.4821 3.2911 13.2787L3.78215 12.7877Z" fill="#E9EAF0"/>
</svg>

